<?xml version="1.0" standalone="no"?>
<!DOCTYPE svg PUBLIC "-//W3C//DTD SVG 20010904//EN"
 "http://www.w3.org/TR/2001/REC-SVG-20010904/DTD/svg10.dtd">
<svg version="1.0" xmlns="http://www.w3.org/2000/svg"
 width="2000.000000pt" height="2000.000000pt" viewBox="0 0 2000.000000 2000.000000"
 preserveAspectRatio="xMidYMid meet">
<metadata>
Created by potrace 1.11, written by Peter Selinger 2001-2013
</metadata>
<g transform="translate(0.000000,2000.000000) scale(0.100000,-0.100000)"
fill="#000000" stroke="none">
<path d="M0 10000 l0 -10000 10000 0 10000 0 0 10000 0 10000 -10000 0 -10000
0 0 -10000z m10625 6945 c1136 -111 2121 -434 3085 -1013 728 -437 1402 -1022
1965 -1707 951 -1157 1561 -2609 1725 -4110 58 -538 60 -1117 4 -1665 -143
-1419 -675 -2790 -1522 -3930 -281 -378 -589 -722 -977 -1091 -87 -83 -139
-141 -187 -214 -37 -55 -82 -115 -101 -133 l-34 -33 -34 32 c-53 49 -232 129
-514 229 -352 125 -532 197 -710 285 -477 236 -738 511 -827 872 -31 124 -30
336 1 482 54 253 206 603 409 941 60 100 240 365 311 459 173 228 369 561 496
841 223 490 360 997 422 1560 28 254 25 818 -6 1069 -80 660 -272 1253 -585
1806 -550 970 -1457 1700 -2467 1985 -1686 476 -3437 -195 -4452 -1707 -410
-611 -665 -1310 -758 -2084 -31 -251 -34 -815 -6 -1069 101 -917 411 -1721
936 -2427 364 -489 625 -999 708 -1383 14 -65 18 -126 17 -255 -1 -155 -3
-178 -28 -260 -53 -177 -133 -310 -266 -444 -235 -237 -524 -389 -1220 -641
-390 -141 -540 -210 -622 -288 -27 -25 -28 -25 -49 -6 -11 10 -54 86 -94 169
l-74 150 -136 125 c-146 133 -366 362 -531 550 -1070 1225 -1743 2781 -1908
4410 -41 400 -52 962 -27 1315 126 1774 795 3376 1960 4700 130 148 469 489
612 616 916 817 1951 1375 3094 1669 442 114 825 172 1400 214 130 10 840 -4
990 -19z"/>
</g>
</svg>
